<svg xmlns="http://www.w3.org/2000/svg" version="1.1" xmlns:xlink="http://www.w3.org/1999/xlink" xmlns:svgjs="http://svgjs.com/svgjs" width="1440" height="560" preserveAspectRatio="none" viewBox="0 0 1440 560"><g mask="url(&quot;#SvgjsMask2754&quot;)" fill="none"><rect width="1440" height="560" x="0" y="0" fill="url(#SvgjsLinearGradient2755)"></rect><g transform="translate(14.4, 0)" stroke-linecap="round" stroke="url(#SvgjsLinearGradient2756)"><path d="M197.5 170.215 L197.5 284.21500000000003" stroke-width="14.25"></path><path d="M197.5 305.59000000000003 L197.5 319.84000000000003" stroke-width="14.25"></path><path d="M197.5 341.21500000000003 L197.5 389.775" stroke-width="14.25"></path><path d="M216.5 263.435 L216.5 296.565" stroke-width="14.25"></path><path d="M235.5 178.785 L235.5 207.285" stroke-width="14.25"></path><path d="M235.5 228.66 L235.5 314.15999999999997" stroke-width="14.25"></path><path d="M235.5 335.53499999999997 L235.5 381.225" stroke-width="14.25"></path><path d="M254.5 86.655 L254.5 115.155" stroke-width="14.25"></path><path d="M254.5 136.53 L254.5 421.53" stroke-width="14.25"></path><path d="M254.5 442.905 L254.5 473.345" stroke-width="14.25"></path><path d="M273.5 207.385 L273.5 264.385" stroke-width="14.25"></path><path d="M273.5 285.76 L273.5 314.26" stroke-width="14.25"></path><path d="M273.5 335.635 L273.5 352.615" stroke-width="14.25"></path><path d="M292.5 190.435 L292.5 369.565" stroke-width="14.25"></path><path d="M311.5 204.575 L311.5 261.575" stroke-width="14.25"></path><path d="M311.5 282.95 L311.5 355.425" stroke-width="14.25"></path><path d="M330.5 199.955 L330.5 299.70500000000004" stroke-width="14.25"></path><path d="M330.5 321.08000000000004 L330.5 360.045" stroke-width="14.25"></path><path d="M349.5 252.465 L349.5 307.525" stroke-width="14.25"></path><path d="M368.5 226.405 L368.5 240.655" stroke-width="14.25"></path><path d="M368.5 262.03 L368.5 290.53" stroke-width="14.25"></path><path d="M368.5 311.905 L368.5 333.595" stroke-width="14.25"></path><path d="M387.5 90.085 L387.5 417.835" stroke-width="14.25"></path><path d="M387.5 439.21 L387.5 469.915" stroke-width="14.25"></path><path d="M406.5 179.505 L406.5 222.255" stroke-width="14.25"></path><path d="M406.5 243.63 L406.5 329.13" stroke-width="14.25"></path><path d="M406.5 350.505 L406.5 380.505" stroke-width="14.25"></path><path d="M425.5 187.465 L425.5 372.535" stroke-width="14.25"></path><path d="M444.5 168.875 L444.5 391.125" stroke-width="14.25"></path><path d="M463.5 265.915 L463.5 294.085" stroke-width="14.25"></path><path d="M482.5 115.935 L482.5 229.935" stroke-width="14.25"></path><path d="M482.5 251.31 L482.5 365.31" stroke-width="14.25"></path><path d="M482.5 386.685 L482.5 444.065" stroke-width="14.25"></path><path d="M501.5 243.975 L501.5 316.025" stroke-width="14.25"></path><path d="M520.5 245.605 L520.5 314.395" stroke-width="14.25"></path><path d="M539.5 141.275 L539.5 326.525" stroke-width="14.25"></path><path d="M539.5 347.9 L539.5 376.4" stroke-width="14.25"></path><path d="M539.5 397.775 L539.5 418.735" stroke-width="14.25"></path><path d="M558.5 213.155 L558.5 241.655" stroke-width="14.25"></path><path d="M558.5 263.03 L558.5 291.53" stroke-width="14.25"></path><path d="M558.5 312.905 L558.5 346.845" stroke-width="14.25"></path><path d="M577.5 91.335 L577.5 333.585" stroke-width="14.25"></path><path d="M577.5 354.96 L577.5 383.46" stroke-width="14.25"></path><path d="M577.5 404.835 L577.5 468.665" stroke-width="14.25"></path><path d="M596.5 155.415 L596.5 183.915" stroke-width="14.25"></path><path d="M596.5 205.29 L596.5 404.585" stroke-width="14.25"></path><path d="M615.5 143.855 L615.5 243.605" stroke-width="14.25"></path><path d="M615.5 264.98 L615.5 416.145" stroke-width="14.25"></path><path d="M634.5 250.835 L634.5 265.08500000000004" stroke-width="14.25"></path><path d="M634.5 286.46000000000004 L634.5 309.165" stroke-width="14.25"></path><path d="M653.5 257.865 L653.5 302.135" stroke-width="14.25"></path><path d="M672.5 159.035 L672.5 244.535" stroke-width="14.25"></path><path d="M672.5 265.90999999999997 L672.5 400.965" stroke-width="14.25"></path><path d="M691.5 198.265 L691.5 269.515" stroke-width="14.25"></path><path d="M691.5 290.89 L691.5 361.735" stroke-width="14.25"></path><path d="M710.5 188.595 L710.5 217.095" stroke-width="14.25"></path><path d="M710.5 238.47 L710.5 266.97" stroke-width="14.25"></path><path d="M710.5 288.345 L710.5 371.405" stroke-width="14.25"></path><path d="M729.5 236.565 L729.5 250.815" stroke-width="14.25"></path><path d="M729.5 272.19 L729.5 286.44" stroke-width="14.25"></path><path d="M729.5 307.815 L729.5 323.435" stroke-width="14.25"></path><path d="M748.5 189.745 L748.5 370.255" stroke-width="14.25"></path><path d="M767.5 82.665 L767.5 367.665" stroke-width="14.25"></path><path d="M767.5 389.04 L767.5 477.335" stroke-width="14.25"></path><path d="M786.5 251.165 L786.5 308.835" stroke-width="14.25"></path><path d="M805.5 206.915 L805.5 221.165" stroke-width="14.25"></path><path d="M805.5 242.54 L805.5 271.03999999999996" stroke-width="14.25"></path><path d="M805.5 292.41499999999996 L805.5 353.085" stroke-width="14.25"></path><path d="M824.5 172.785 L824.5 258.28499999999997" stroke-width="14.25"></path><path d="M824.5 279.65999999999997 L824.5 387.215" stroke-width="14.25"></path><path d="M843.5 98.965 L843.5 198.715" stroke-width="14.25"></path><path d="M843.5 220.09 L843.5 376.84000000000003" stroke-width="14.25"></path><path d="M843.5 398.21500000000003 L843.5 461.035" stroke-width="14.25"></path><path d="M862.5 144.625 L862.5 258.625" stroke-width="14.25"></path><path d="M862.5 280 L862.5 337" stroke-width="14.25"></path><path d="M862.5 358.375 L862.5 415.375" stroke-width="14.25"></path><path d="M881.5 152.785 L881.5 252.535" stroke-width="14.25"></path><path d="M881.5 273.90999999999997 L881.5 359.40999999999997" stroke-width="14.25"></path><path d="M881.5 380.78499999999997 L881.5 407.225" stroke-width="14.25"></path><path d="M900.5 131.505 L900.5 202.755" stroke-width="14.25"></path><path d="M900.5 224.13 L900.5 281.13" stroke-width="14.25"></path><path d="M900.5 302.505 L900.5 428.505" stroke-width="14.25"></path><path d="M919.5 130.175 L919.5 386.675" stroke-width="14.25"></path><path d="M919.5 408.05 L919.5 429.825" stroke-width="14.25"></path><path d="M938.5 95.215 L938.5 464.785" stroke-width="14.25"></path><path d="M957.5 216.845 L957.5 273.845" stroke-width="14.25"></path><path d="M957.5 295.22 L957.5 343.155" stroke-width="14.25"></path><path d="M976.5 178.715 L976.5 207.215" stroke-width="14.25"></path><path d="M976.5 228.59 L976.5 381.285" stroke-width="14.25"></path><path d="M995.5 225.995 L995.5 334.005" stroke-width="14.25"></path><path d="M1014.5 159.175 L1014.5 230.425" stroke-width="14.25"></path><path d="M1014.5 251.8 L1014.5 266.05" stroke-width="14.25"></path><path d="M1014.5 287.425 L1014.5 400.825" stroke-width="14.25"></path><path d="M1033.5 241.265 L1033.5 255.515" stroke-width="14.25"></path><path d="M1033.5 276.89 L1033.5 318.735" stroke-width="14.25"></path><path d="M1052.5 225.525 L1052.5 239.775" stroke-width="14.25"></path><path d="M1052.5 261.15 L1052.5 334.475" stroke-width="14.25"></path><path d="M1071.5 177.505 L1071.5 248.755" stroke-width="14.25"></path><path d="M1071.5 270.13 L1071.5 312.88" stroke-width="14.25"></path><path d="M1071.5 334.255 L1071.5 382.495" stroke-width="14.25"></path><path d="M1090.5 105.535 L1090.5 276.53499999999997" stroke-width="14.25"></path><path d="M1090.5 297.90999999999997 L1090.5 454.475" stroke-width="14.25"></path><path d="M1109.5 211.765 L1109.5 240.265" stroke-width="14.25"></path><path d="M1109.5 261.64 L1109.5 304.39" stroke-width="14.25"></path><path d="M1109.5 325.765 L1109.5 348.235" stroke-width="14.25"></path><path d="M1128.5 242.295 L1128.5 317.705" stroke-width="14.25"></path><path d="M1147.5 222.545 L1147.5 236.795" stroke-width="14.25"></path><path d="M1147.5 258.16999999999996 L1147.5 300.91999999999996" stroke-width="14.25"></path><path d="M1147.5 322.29499999999996 L1147.5 337.455" stroke-width="14.25"></path><path d="M1166.5 118.985 L1166.5 261.485" stroke-width="14.25"></path><path d="M1166.5 282.86 L1166.5 311.36" stroke-width="14.25"></path><path d="M1166.5 332.735 L1166.5 441.015" stroke-width="14.25"></path><path d="M1185.5 163.735 L1185.5 220.735" stroke-width="14.25"></path><path d="M1185.5 242.11 L1185.5 256.36" stroke-width="14.25"></path><path d="M1185.5 277.735 L1185.5 396.265" stroke-width="14.25"></path><path d="M1204.5 176.375 L1204.5 204.875" stroke-width="14.25"></path><path d="M1204.5 226.25 L1204.5 383.625" stroke-width="14.25"></path><path d="M1223.5 151.965 L1223.5 337.21500000000003" stroke-width="14.25"></path><path d="M1223.5 358.59000000000003 L1223.5 408.035" stroke-width="14.25"></path><path d="M1242.5 172.905 L1242.5 215.655" stroke-width="14.25"></path><path d="M1242.5 237.03 L1242.5 387.105" stroke-width="14.25"></path></g></g><defs><mask id="SvgjsMask2754"><rect width="1440" height="560" fill="#ffffff"></rect></mask><linearGradient x1="15.28%" y1="-39.29%" x2="84.72%" y2="139.29%" gradientUnits="userSpaceOnUse" id="SvgjsLinearGradient2755"><stop stop-color="#0e2a47" offset="0"></stop><stop stop-color="rgba(27, 135, 216, 1)" offset="1"></stop></linearGradient><linearGradient x1="350.02368" y1="650.01776" x2="1089.9763199999998" y2="-90.01775999999998" gradientUnits="userSpaceOnUse" id="SvgjsLinearGradient2756"><stop stop-color="#3a7cc3" offset="0"></stop><stop stop-color="rgba(155, 72, 247, 0.95)" offset="0.53"></stop><stop stop-color="rgba(111, 21, 210, 0.95)" offset="1"></stop></linearGradient></defs></svg>