<svg xmlns="http://www.w3.org/2000/svg" width="1440" height="560" preserveAspectRatio="none"><g mask="url(&quot;#SvgjsMask2754&quot;)" fill="none"><path fill="url(#SvgjsLinearGradient2755)" d="M0 0h1440v560H0z"/><path d="M197.5 170.215v114m0 21.375v14.25m0 21.375v48.56m19-126.34v33.13m19-117.78v28.5m0 21.375v85.5m0 21.375v45.69m19-294.57v28.5m0 21.375v285m0 21.375v30.44m19-265.96v57m0 21.375v28.5m0 21.375v16.98m19-162.18v179.13m19-164.99v57m0 21.375v72.475m19-155.47v99.75m0 21.375v38.965m19-107.58v55.06m19-81.12v14.25m0 21.375v28.5m0 21.375v21.69m19-243.51v327.75m0 21.375v30.705m19-290.41v42.75m0 21.375v85.5m0 21.375v30m19-193.04v185.07m19-203.66v222.25m19-125.21v28.17m19-178.15v114m0 21.375v114m0 21.375v57.38m19-200.09v72.05m19-70.42v68.79m19-173.12v185.25m0 21.375v28.5m0 21.375v20.96m19-205.58v28.5m0 21.375v28.5m0 21.375v33.94m19-255.51v242.25m0 21.375v28.5m0 21.375v63.83m19-313.25v28.5m0 21.375v199.295m19-260.73v99.75m0 21.375v151.165m19-165.31v14.25m0 21.375v22.705m19-51.3v44.27m19-143.1v85.5m0 21.375v135.055m19-202.7v71.25m0 21.375v70.845m19-173.14v28.5m0 21.375v28.5m0 21.375v83.06m19-134.84v14.25m0 21.375v14.25m0 21.375v15.62m19-133.69v180.51m19-287.59v285m0 21.375v88.295m19-226.17v57.67m19-101.92v14.25m0 21.375v28.5m0 21.375v60.67m19-180.3v85.5m0 21.375v107.555m19-288.25v99.75m0 21.375v156.75m0 21.375v62.82m19-316.41v114m0 21.375v57m0 21.375v57m19-262.59v99.75m0 21.375v85.5m0 21.375v26.44m19-275.72v71.25m0 21.375v57m0 21.375v126m19-298.33v256.5m0 21.375v21.775m19-334.61v369.57m19-247.94v57m0 21.375v47.935m19-164.44v28.5m0 21.375v152.695m19-155.29v108.01m19-174.83v71.25m0 21.375v14.25m0 21.375v113.4m19-159.56v14.25m0 21.375v41.845m19-93.21v14.25m0 21.375v73.325m19-156.97v71.25m0 21.375v42.75m0 21.375v48.24m19-276.96v171m0 21.375v156.565m19-242.71v28.5m0 21.375v42.75m0 21.375v22.47m19-105.94v75.41m19-95.16v14.25m0 21.375v42.75m0 21.375v15.16m19-218.47v142.5m0 21.375v28.5m0 21.375v108.28m19-277.28v57m0 21.375v14.25m0 21.375v118.53m19-219.89v28.5m0 21.375v157.375m19-231.66v185.25m0 21.375v49.445m19-235.13v42.75m0 21.375v150.075" transform="translate(14.4)" stroke-linecap="round" stroke="url(#SvgjsLinearGradient2756)" stroke-width="14.25"/></g><defs><linearGradient x1="15.28%" y1="-39.29%" x2="84.72%" y2="139.29%" gradientUnits="userSpaceOnUse" id="SvgjsLinearGradient2755"><stop stop-color="#0e2a47" offset="0"/><stop stop-color="rgba(27, 135, 216, 1)" offset="1"/></linearGradient><linearGradient x1="350.024" y1="650.018" x2="1089.976" y2="-90.018" gradientUnits="userSpaceOnUse" id="SvgjsLinearGradient2756"><stop stop-color="#3a7cc3" offset="0"/><stop stop-color="rgba(155, 72, 247, 0.95)" offset=".53"/><stop stop-color="rgba(111, 21, 210, 0.95)" offset="1"/></linearGradient><mask id="SvgjsMask2754"><path fill="#fff" d="M0 0h1440v560H0z"/></mask></defs></svg>